<?xml version="1.0" standalone="no"?>
<!DOCTYPE svg PUBLIC "-//W3C//DTD SVG 20010904//EN"
 "http://www.w3.org/TR/2001/REC-SVG-20010904/DTD/svg10.dtd">
<svg version="1.0" xmlns="http://www.w3.org/2000/svg"
 width="1024.000000pt" height="1024.000000pt" viewBox="0 0 1024.000000 1024.000000"
 preserveAspectRatio="xMidYMid meet">

<g transform="translate(0.000000,1024.000000) scale(0.100000,-0.100000)"
fill="#fff" stroke="none">
<path d="M1821 9465 c-96 -21 -184 -67 -253 -132 -75 -72 -111 -124 -146 -210
l-27 -68 -3 -3939 c-2 -4304 -6 -3989 53 -4111 49 -100 153 -203 255 -251 121
-58 -86 -54 3377 -52 l3188 3 65 22 c164 56 309 210 352 372 16 61 17 229 17
2442 1 2624 5 2443 -63 2652 -19 57 -57 153 -85 212 -108 229 -49 165 -1400
1516 -960 961 -1253 1248 -1311 1286 -205 136 -461 235 -680 262 -56 7 -618
11 -1680 10 -1318 0 -1606 -3 -1659 -14z m3229 -1975 l5 -1255 23 -57 c70
-174 204 -294 378 -338 75 -19 113 -20 1296 -20 l1218 0 0 -2195 0 -2195
-2925 0 -2925 0 0 3660 0 3660 1463 -2 1462 -3 5 -1255z m1585 -90 l850 -850
-853 0 -852 0 0 850 c0 468 1 850 3 850 1 0 385 -382 852 -850z"/>
<path d="M2955 5071 c-95 -43 -105 -78 -105 -348 0 -191 3 -223 19 -258 21
-46 54 -79 94 -94 40 -15 4124 -15 4164 0 42 15 92 68 103 109 5 19 10 132 10
250 0 268 -12 303 -113 345 -32 13 -264 15 -2084 15 -1966 0 -2050 -1 -2088
-19z"/>
<path d="M2977 3618 c-50 -13 -103 -67 -117 -119 -7 -26 -10 -122 -8 -263 3
-207 4 -223 25 -256 12 -20 40 -46 61 -58 l40 -22 2067 0 c2315 0 2110 -7
2163 73 l27 40 3 231 c3 195 1 237 -13 273 -19 50 -62 86 -120 102 -54 15
-4073 14 -4128 -1z"/>
</g>
</svg>
