<?xml version="1.0" standalone="no"?>
<!DOCTYPE svg PUBLIC "-//W3C//DTD SVG 20010904//EN"
 "http://www.w3.org/TR/2001/REC-SVG-20010904/DTD/svg10.dtd">
<svg version="1.0" xmlns="http://www.w3.org/2000/svg"
 width="30.000000pt" height="30.000000pt" viewBox="0 0 30.000000 30.000000"
 preserveAspectRatio="xMidYMid meet">

<g transform="translate(0.000000,30.000000) scale(0.100000,-0.100000)"
fill="#fff" stroke="none">
<path d="M44 247 c-3 -8 -3 -56 -2 -108 l3 -94 105 0 105 0 3 89 c2 72 0 92
-14 107 -27 30 -44 24 -44 -16 l0 -35 -55 0 -55 0 0 35 c0 29 -4 35 -20 35
-11 0 -23 -6 -26 -13z m174 -149 l3 -38 -70 0 -71 0 0 33 c0 19 3 37 7 41 4 4
34 6 68 4 l60 -3 3 -37z"/>
<path d="M160 235 c0 -14 5 -25 10 -25 6 0 10 11 10 25 0 14 -4 25 -10 25 -5
0 -10 -11 -10 -25z"/>
</g>
</svg>
