<?xml version="1.0" standalone="no"?><svg xmlns="http://www.w3.org/2000/svg" viewBox="0 0 1440 320"><path fill="#0099ff" fill-opacity="1" d="M0,64L16,85.3C32,107,64,149,96,144C128,139,160,85,192,80C224,75,256,117,288,144C320,171,352,181,384,160C416,139,448,85,480,101.3C512,117,544,203,576,208C608,213,640,139,672,96C704,53,736,43,768,85.3C800,128,832,224,864,224C896,224,928,128,960,85.3C992,43,1024,53,1056,64C1088,75,1120,85,1152,80C1184,75,1216,53,1248,58.7C1280,64,1312,96,1344,101.3C1376,107,1408,85,1424,74.7L1440,64L1440,320L1424,320C1408,320,1376,320,1344,320C1312,320,1280,320,1248,320C1216,320,1184,320,1152,320C1120,320,1088,320,1056,320C1024,320,992,320,960,320C928,320,896,320,864,320C832,320,800,320,768,320C736,320,704,320,672,320C640,320,608,320,576,320C544,320,512,320,480,320C448,320,416,320,384,320C352,320,320,320,288,320C256,320,224,320,192,320C160,320,128,320,96,320C64,320,32,320,16,320L0,320Z"></path></svg>